{
    "asset" : {
        "generator" : "Khronos glTF Blender I/O v1.6.16",
        "version" : "2.0"
    },
    "scene" : 0,
    "scenes" : [
        {
            "name" : "Scene",
            "nodes" : [
                0,
                1,
                2
            ]
        }
    ],
    "nodes" : [
        {
            "mesh" : 0,
            "name" : "Tube003",
            "rotation" : [
                0.5000000596046448,
                0.5,
                -0.5000001192092896,
                0.5
            ],
            "scale" : [
                0.032254621386528015,
                0.02449827454984188,
                0.032254621386528015
            ]
        },
        {
            "mesh" : 1,
            "name" : "final tire ",
            "rotation" : [
                0.5000001788139343,
                0.5000001192092896,
                -0.49999988079071045,
                0.4999997913837433
            ],
            "scale" : [
                0.033814918249845505,
                0.033814918249845505,
                0.033814918249845505
            ]
        },
        {
            "mesh" : 2,
            "name" : "Pyramid094",
            "rotation" : [
                0.2164396345615387,
                0,
                0,
                0.9762960076332092
            ],
            "scale" : [
                0.02539999969303608,
                0.02539999969303608,
                0.02539999969303608
            ]
        }
    ],
    "materials" : [
        {
            "doubleSided" : true,
            "name" : "tire real",
            "normalTexture" : {
                "index" : 0
            },
            "pbrMetallicRoughness" : {
                "baseColorFactor" : [
                    0,
                    0,
                    0,
                    1
                ],
                "metallicFactor" : 0,
                "roughnessFactor" : 0.5527864098548889
            }
        },
        {
            "doubleSided" : true,
            "name" : "Material #91",
            "pbrMetallicRoughness" : {
                "baseColorFactor" : [
                    0.5529412031173706,
                    0.5529412031173706,
                    0.5529412031173706,
                    1
                ],
                "roughnessFactor" : 0.10000000149011612
            }
        },
        {
            "doubleSided" : true,
            "name" : "Material #87",
            "pbrMetallicRoughness" : {
                "baseColorFactor" : [
                    0.012015328742563725,
                    0.012015328742563725,
                    0.012015328742563725,
                    1
                ],
                "metallicFactor" : 0,
                "roughnessFactor" : 0.5527864098548889
            }
        }
    ],
    "meshes" : [
        {
            "name" : "Mesh",
            "primitives" : [
                {
                    "attributes" : {
                        "POSITION" : 0,
                        "NORMAL" : 1,
                        "TEXCOORD_0" : 2
                    },
                    "indices" : 3,
                    "material" : 0
                }
            ]
        },
        {
            "name" : "Mesh.001",
            "primitives" : [
                {
                    "attributes" : {
                        "POSITION" : 4,
                        "NORMAL" : 5,
                        "TEXCOORD_0" : 6
                    },
                    "indices" : 7,
                    "material" : 1
                }
            ]
        },
        {
            "name" : "Mesh.002",
            "primitives" : [
                {
                    "attributes" : {
                        "POSITION" : 8,
                        "NORMAL" : 9,
                        "TEXCOORD_0" : 10
                    },
                    "indices" : 11,
                    "material" : 2
                }
            ]
        }
    ],
    "textures" : [
        {
            "sampler" : 0,
            "source" : 0
        }
    ],
    "images" : [
        {
            "bufferView" : 4,
            "mimeType" : "image/png",
            "name" : "tire final 2_tire_Normal"
        }
    ],
    "accessors" : [
        {
            "bufferView" : 0,
            "componentType" : 5126,
            "count" : 1123,
            "max" : [
                22.540294647216797,
                9.597911834716797,
                22.540298461914062
            ],
            "min" : [
                -22.540298461914062,
                -9.597906112670898,
                -22.540294647216797
            ],
            "type" : "VEC3"
        },
        {
            "bufferView" : 1,
            "componentType" : 5126,
            "count" : 1123,
            "type" : "VEC3"
        },
        {
            "bufferView" : 2,
            "componentType" : 5126,
            "count" : 1123,
            "type" : "VEC2"
        },
        {
            "bufferView" : 3,
            "componentType" : 5123,
            "count" : 5760,
            "type" : "SCALAR"
        },
        {
            "bufferView" : 5,
            "componentType" : 5126,
            "count" : 5160,
            "max" : [
                14.392171859741211,
                6.625786781311035,
                14.392171859741211
            ],
            "min" : [
                -14.392168045043945,
                3.042097806930542,
                -14.392168045043945
            ],
            "type" : "VEC3"
        },
        {
            "bufferView" : 6,
            "componentType" : 5126,
            "count" : 5160,
            "type" : "VEC3"
        },
        {
            "bufferView" : 7,
            "componentType" : 5126,
            "count" : 5160,
            "type" : "VEC2"
        },
        {
            "bufferView" : 8,
            "componentType" : 5123,
            "count" : 28416,
            "type" : "SCALAR"
        },
        {
            "bufferView" : 9,
            "componentType" : 5126,
            "count" : 66999,
            "max" : [
                7.512788772583008,
                29.558391571044922,
                29.608837127685547
            ],
            "min" : [
                -7.601842880249023,
                -29.57777214050293,
                -29.52730941772461
            ],
            "type" : "VEC3"
        },
        {
            "bufferView" : 10,
            "componentType" : 5126,
            "count" : 66999,
            "type" : "VEC3"
        },
        {
            "bufferView" : 11,
            "componentType" : 5126,
            "count" : 66999,
            "type" : "VEC2"
        },
        {
            "bufferView" : 12,
            "componentType" : 5125,
            "count" : 96432,
            "type" : "SCALAR"
        }
    ],
    "bufferViews" : [
        {
            "buffer" : 0,
            "byteLength" : 13476,
            "byteOffset" : 0
        },
        {
            "buffer" : 0,
            "byteLength" : 13476,
            "byteOffset" : 13476
        },
        {
            "buffer" : 0,
            "byteLength" : 8984,
            "byteOffset" : 26952
        },
        {
            "buffer" : 0,
            "byteLength" : 11520,
            "byteOffset" : 35936
        },
        {
            "buffer" : 0,
            "byteLength" : 287682,
            "byteOffset" : 47456
        },
        {
            "buffer" : 0,
            "byteLength" : 61920,
            "byteOffset" : 335140
        },
        {
            "buffer" : 0,
            "byteLength" : 61920,
            "byteOffset" : 397060
        },
        {
            "buffer" : 0,
            "byteLength" : 41280,
            "byteOffset" : 458980
        },
        {
            "buffer" : 0,
            "byteLength" : 56832,
            "byteOffset" : 500260
        },
        {
            "buffer" : 0,
            "byteLength" : 803988,
            "byteOffset" : 557092
        },
        {
            "buffer" : 0,
            "byteLength" : 803988,
            "byteOffset" : 1361080
        },
        {
            "buffer" : 0,
            "byteLength" : 535992,
            "byteOffset" : 2165068
        },
        {
            "buffer" : 0,
            "byteLength" : 385728,
            "byteOffset" : 2701060
        }
    ],
    "samplers" : [
        {
            "magFilter" : 9729,
            "minFilter" : 9987
        }
    ],
    "buffers" : [
        {
            "byteLength" : 3086788,
            "uri" : "data:application/octet-stream;base64,"
        }
    ]
}
